<?xml version="1.0" encoding="iso-8859-1"?>
<!-- Generator: Adobe Illustrator 19.0.0, SVG Export Plug-In . SVG Version: 6.00 Build 0)  -->
<svg version="1.1" id="Capa_1" xmlns="http://www.w3.org/2000/svg" xmlns:xlink="http://www.w3.org/1999/xlink" x="0px" y="0px"
	 viewBox="0 0 512 512" style="enable-background:new 0 0 512 512;" xml:space="preserve">
<path style="fill:#656D78;" d="M114.813,415.575h311.674c11.774,0,21.311-9.537,21.311-21.311V21.311
	C447.798,9.526,438.261,0,426.487,0H106.822C83.284,0,64.2,19.084,64.2,42.622v85.244v74.599v74.589v74.589v98.564
	c0,27.908,22.705,50.614,50.614,50.614h324.993c4.414,0,7.992-3.578,7.992-7.992s-3.577-7.992-7.992-7.992H114.813
	c-19.096,0-34.63-15.535-34.63-34.63C80.183,431.11,95.718,415.575,114.813,415.575z"/>
<path style="fill:#515760;" d="M426.487,0h-31.97c11.774,0,21.311,9.526,21.311,21.311v372.953c0,11.774-9.537,21.311-21.311,21.311
	h31.97c11.774,0,21.311-9.537,21.311-21.311V21.311C447.798,9.526,438.261,0,426.487,0z"/>
<path style="fill:#ED5565;" d="M106.822,400.229V309.02v-74.589v-74.589V85.244V0C83.284,0,64.2,19.084,64.2,42.622v85.244v74.599
	v74.589v74.589v98.564C64.2,425.017,82.698,404.073,106.822,400.229z"/>
<path style="fill:#E6E9ED;" d="M114.813,415.575c-19.096,0-34.63,15.535-34.63,34.63c0,19.096,15.535,34.63,34.63,34.63h311.674
	v-69.261L114.813,415.575L114.813,415.575z"/>
<path style="fill:#FFCE54;" d="M343.907,149.177c4.395,0,7.992,3.596,7.992,7.992v26.639c0,4.395-3.596,7.992-7.992,7.992h-45.286
	v109.229c0,4.395-3.596,7.992-7.992,7.992H263.99c-4.395,0-7.992-3.596-7.992-7.992V191.81h-45.286
	c-4.395,0-7.992-3.596-7.992-7.992v-26.649c0-4.395,3.596-7.992,7.992-7.992h45.287v-45.286c0-4.395,3.596-7.992,7.992-7.992h26.639
	c4.395,0,7.992,3.596,7.992,7.992v45.286L343.907,149.177L343.907,149.177z"/>
<g>
	<path style="fill:#DA4453;" d="M106.822,77.252c-13.346,0-28.387,5.257-40.233,14.062c-0.82,0.609-1.615,1.23-2.389,1.859v24.322
		c7.006-13.687,26.547-24.261,42.622-24.261v-7.992V77.252z"/>
	<path style="fill:#DA4453;" d="M106.822,151.851c-13.348,0-28.388,5.255-40.233,14.058c-0.82,0.609-1.615,1.23-2.389,1.859v24.327
		c7.006-13.687,26.547-24.261,42.622-24.261v-7.992V151.851z"/>
	<path style="fill:#DA4453;" d="M106.822,226.44c-13.346,0-28.387,5.257-40.233,14.062c-0.82,0.609-1.615,1.23-2.389,1.859v24.322
		c7.006-13.687,26.547-24.261,42.622-24.261v-7.992V226.44z"/>
	<path style="fill:#DA4453;" d="M106.822,301.029c-13.346,0-28.387,5.257-40.233,14.062c-0.82,0.609-1.615,1.23-2.389,1.859v24.322
		c7.006-13.687,26.547-24.261,42.622-24.261v-7.992V301.029z"/>
</g>
<path style="fill:#CCD1D9;" d="M234.687,458.197H128.134c-4.414,0-7.992-3.578-7.992-7.992s3.577-7.992,7.992-7.992h106.553
	c4.414,0,7.992,3.577,7.992,7.992S239.101,458.197,234.687,458.197z"/>
<path style="fill:#ED5565;" d="M213.377,484.836c0,4.395,0,11.588,0,15.983v5.328c0,4.395-3.412,6.854-7.582,5.464l-16.803-5.6
	c-4.17-1.39-10.994-1.39-15.163,0l-16.803,5.6c-4.17,1.39-7.582-1.069-7.582-5.464v-5.317c0-4.395,0-46.229,0-50.624h55.941
	c4.395,0,7.992,0.002,7.992,0.005s0,3.601,0,7.997L213.377,484.836L213.377,484.836z"/>
<rect x="394.519" y="415.57" style="fill:#CCD1D9;" width="31.97" height="69.26"/>
<g>
</g>
<g>
</g>
<g>
</g>
<g>
</g>
<g>
</g>
<g>
</g>
<g>
</g>
<g>
</g>
<g>
</g>
<g>
</g>
<g>
</g>
<g>
</g>
<g>
</g>
<g>
</g>
<g>
</g>
</svg>
