<?xml version="1.0" encoding="iso-8859-1"?>
<!-- Generator: Adobe Illustrator 19.0.0, SVG Export Plug-In . SVG Version: 6.00 Build 0)  -->
<svg version="1.1" id="Capa_1" xmlns="http://www.w3.org/2000/svg" xmlns:xlink="http://www.w3.org/1999/xlink" x="0px" y="0px"
	 viewBox="0 0 512.1 512.1" style="enable-background:new 0 0 512.1 512.1;" xml:space="preserve">
<path style="fill:#2196F3;" d="M373.35,0h-234.6c-41.3,0-74.7,33.4-74.7,74.7v426.7c0,4.3,2.6,8.2,6.6,9.9c1.3,0.5,2.7,0.8,4.1,0.8
	c2.8,0,5.5-1.1,7.6-3.1l120.4-120.6c47.1,46.5,112.1,110.9,119.1,118.9c3.3,4.9,9.9,6.2,14.8,3c1.8-1.2,3.2-2.9,4-4.8
	c0.7-1.2,1-2.6,0.8-3.9v-448c0-17.7,14.3-32,32-32c5.9,0,10.7-4.8,10.7-10.7S379.25,0,373.35,0z"/>
<path style="fill:#1976D2;" d="M371.05,0L371.05,0c23.6,0,42.7,19.1,42.7,42.7v32c0,5.9-4.8,10.7-10.7,10.7h-74.7l0,0V42.7
	C328.35,19.1,347.45,0,371.05,0z"/>
<circle style="fill:#FFC107;" cx="330.75" cy="245.3" r="117.3"/>
<path style="fill:#FAFAFA;" d="M309.35,298.7c-2.8,0-5.5-1.1-7.6-3.1l-42.7-42.7c-4.1-4.2-4-11,0.3-15.1c4.1-4,10.7-4,14.8,0
	l35.1,35.1l77.8-77.8c4.1-4.2,10.8-4.4,15.1-0.3c4.2,4.1,4.4,10.8,0.3,15.1c-0.1,0.1-0.2,0.2-0.3,0.3l-85.3,85.3
	C314.95,297.5,312.25,298.7,309.35,298.7z"/>
<path d="M74.75,512c-1.4,0-2.8-0.3-4.1-0.8c-4-1.6-6.6-5.5-6.6-9.9V74.7c0-41.3,33.4-74.7,74.7-74.7h234.7c5.9,0,10.7,4.8,10.7,10.7
	s-4.8,10.7-10.7,10.7c-17.7,0-32,14.3-32,32V96c0,5.9-4.8,10.7-10.7,10.7c-5.9,0-10.7-4.8-10.7-10.7V53.3c0-11.5,3.7-22.8,10.7-32
	h-192c-29.5,0-53.3,23.9-53.3,53.3v400.9l109.8-109.8c4.1-4.1,10.8-4.1,14.9,0c58.8,58,91.7,90.4,109.8,109.3v-80.4
	c0-5.9,4.8-10.7,10.7-10.7c5.9,0,10.7,4.8,10.7,10.7v106.7c0.2,1.4-0.1,2.8-0.7,4c-2.2,5.5-8.5,8.1-13.9,5.8c-2-0.8-3.7-2.2-4.9-4
	c-7-7.9-71.9-72.3-119.1-118.8L82.25,508.9C80.25,510.9,77.55,512,74.75,512z"/>
<path d="M416.05,85.3h-85.3c-5.9,0-10.7-4.8-10.7-10.7s4.8-10.6,10.7-10.6h74.7V53.3c0-17.7-14.3-32-32-32
	c-5.9,0-10.7-4.8-10.7-10.7S367.45,0,373.35,0c29.5,0,53.3,23.9,53.3,53.3v21.3C426.75,80.6,421.95,85.3,416.05,85.3z"/>
<path d="M330.75,362.7c-64.8,0-117.3-52.5-117.3-117.3S265.95,128,330.75,128s117.3,52.5,117.3,117.3
	C447.95,310.1,395.45,362.6,330.75,362.7z M330.75,149.3c-53,0-96,43-96,96s43,96,96,96s96-43,96-96S383.75,149.3,330.75,149.3
	L330.75,149.3z"/>
<path d="M309.35,298.7c-2.8,0-5.5-1.1-7.6-3.1l-42.7-42.7c-4.1-4.2-4-11,0.3-15.1c4.1-4,10.7-4,14.8,0l35.1,35.1l77.8-77.8
	c4.1-4.2,10.8-4.4,15.1-0.3c4.2,4.1,4.4,10.8,0.3,15.1c-0.1,0.1-0.2,0.2-0.3,0.3l-85.3,85.3C314.95,297.5,312.25,298.7,309.35,298.7
	z"/>
<g>
</g>
<g>
</g>
<g>
</g>
<g>
</g>
<g>
</g>
<g>
</g>
<g>
</g>
<g>
</g>
<g>
</g>
<g>
</g>
<g>
</g>
<g>
</g>
<g>
</g>
<g>
</g>
<g>
</g>
</svg>
