<svg id="Layer_1" enable-background="new 0 0 512 512" height="512" viewBox="0 0 512 512" width="512" 
    xmlns="http://www.w3.org/2000/svg">
    <g>
        <g id="XMLID_350_">
            <g id="XMLID_493_">
                <g id="XMLID_503_">
                    <g id="XMLID_520_">
                        <g id="XMLID_521_">
                            <g id="XMLID_522_">
                                <g id="XMLID_523_">
                                    <g id="XMLID_525_">
                                        <g id="XMLID_526_">
                                            <g id="XMLID_527_">
                                                <g id="XMLID_528_">
                                                    <g id="XMLID_529_">
                                                        <g id="XMLID_530_">
                                                            <g id="XMLID_531_">
                                                                <circle id="XMLID_532_" cx="256" cy="256" fill="#21d461" r="256"/>
                                                            </g>
                                                        </g>
                                                    </g>
                                                </g>
                                            </g>
                                        </g>
                                    </g>
                                </g>
                            </g>
                        </g>
                    </g>
                </g>
            </g>
        </g>
        <path d="m512 256c0-24.746-3.523-48.666-10.074-71.301l-105.605-105.937-28.341 57.008-56.544-56.627-26.532 58.951-58.617-58.679-31.166 54.296-54.688-54.767-68.262 330.889 80.39 80.39c31.634 13.991 66.625 21.777 103.439 21.777 141.385 0 256-114.615 256-256z" fill="#1cae4f"/>
        <g>
            <g>
                <g>
                    <g>
                        <path d="m145.332 129.227h-34.865v-38.185c0-9.628 7.805-17.433 17.433-17.433 9.628 0 17.433 7.805 17.433 17.433v38.185z" fill="#436375"/>
                    </g>
                </g>
                <g>
                    <g>
                        <path d="m230.731 129.227h-34.865v-38.185c0-9.628 7.805-17.433 17.433-17.433 9.628 0 17.433 7.805 17.433 17.433v38.185z" fill="#436375"/>
                    </g>
                </g>
                <g>
                    <g>
                        <path d="m316.131 129.227h-34.865v-38.185c0-9.628 7.805-17.433 17.433-17.433 9.628 0 17.433 7.805 17.433 17.433v38.185z" fill="#274a59"/>
                    </g>
                </g>
                <g>
                    <g>
                        <path d="m401.381 129.227h-34.865v-38.185c0-9.628 7.805-17.433 17.433-17.433 9.628 0 17.433 7.805 17.433 17.433v38.185z" fill="#274a59"/>
                    </g>
                </g>
            </g>
            <path d="m72.171 190.284h367.654v219.549h-367.654z" fill="#fff"/>
            <path d="m255.998 190.28h183.83v219.549h-183.83z" fill="#e9edf5"/>
            <path d="m72.171 125.046h367.654v68.557h-367.654z" fill="#fedd55"/>
            <path d="m255.998 125.05h183.83v68.55h-183.83z" fill="#ffc627"/>
            <g>
                <g>
                    <path d="m117.958 240.597h37.766v37.766h-37.766z" fill="#436375"/>
                    <path d="m197.396 240.597h37.766v37.766h-37.766z" fill="#436375"/>
                    <path d="m276.835 240.597h37.766v37.766h-37.766z" fill="#274a59"/>
                    <path d="m356.273 240.597h37.766v37.766h-37.766z" fill="#e4186b"/>
                    <path d="m117.958 318.339h37.766v37.766h-37.766z" fill="#436375"/>
                    <path d="m197.396 318.339h37.766v37.766h-37.766z" fill="#436375"/>
                    <path d="m276.835 318.339h37.766v37.766h-37.766z" fill="#274a59"/>
                    <path d="m356.273 318.339h37.766v37.766h-37.766z" fill="#e4186b"/>
                </g>
            </g>
        </g>
    </g>
</svg>