<?xml version="1.0" encoding="iso-8859-1"?>
<!-- Generator: Adobe Illustrator 19.0.0, SVG Export Plug-In . SVG Version: 6.00 Build 0)  -->
<svg version="1.1" id="Capa_1" xmlns="http://www.w3.org/2000/svg" xmlns:xlink="http://www.w3.org/1999/xlink" x="0px" y="0px"
	 viewBox="0 0 480 480" style="enable-background:new 0 0 480 480;" xml:space="preserve">
<linearGradient id="SVGID_1_" gradientUnits="userSpaceOnUse" x1="-26.875" y1="585.135" x2="-26.875" y2="651.545" gradientTransform="matrix(8 0 0 -8 455 5157)">
	<stop  offset="0" style="stop-color:#006DF0"/>
	<stop  offset="1" style="stop-color:#00E7F0"/>
</linearGradient>
<path style="fill:url(#SVGID_1_);" d="M424,72h-64V32c0-4.418-3.582-8-8-8s-8,3.582-8,8v40H136V32c0-4.418-3.582-8-8-8s-8,3.582-8,8
	v40H56C25.089,72.04,0.04,97.089,0,128v272c0.04,30.911,25.089,55.96,56,56h368c30.911-0.04,55.96-25.089,56-56V128
	C479.96,97.089,454.911,72.04,424,72z M56,88h64v40c0,4.418,3.582,8,8,8s8-3.582,8-8V88h208v40c0,4.418,3.582,8,8,8s8-3.582,8-8V88
	h64c22.08,0.026,39.974,17.92,40,40v56H16v-56C16.026,105.92,33.92,88.026,56,88z M424,440H56c-22.08-0.026-39.974-17.92-40-40V200
	h448v200C463.974,422.08,446.08,439.974,424,440z"/>
<g>
</g>
<g>
</g>
<g>
</g>
<g>
</g>
<g>
</g>
<g>
</g>
<g>
</g>
<g>
</g>
<g>
</g>
<g>
</g>
<g>
</g>
<g>
</g>
<g>
</g>
<g>
</g>
<g>
</g>
</svg>
