<?xml version="1.0" encoding="iso-8859-1"?>
<!-- Generator: Adobe Illustrator 19.0.0, SVG Export Plug-In . SVG Version: 6.00 Build 0)  -->
<svg version="1.1" id="Capa_1" xmlns="http://www.w3.org/2000/svg" xmlns:xlink="http://www.w3.org/1999/xlink" x="0px" y="0px"
	 viewBox="0 0 512.001 512.001" style="enable-background:new 0 0 512.001 512.001;" xml:space="preserve">
<path style="fill:#E51D13;" d="M477.955,262.633c-2.06-4.214-2.06-9.049,0-13.263l19.096-39.065
	c10.632-21.751,2.208-47.676-19.178-59.024l-38.409-20.378c-4.144-2.199-6.986-6.11-7.796-10.729l-7.512-42.829
	c-4.183-23.847-26.243-39.865-50.208-36.479l-43.053,6.09c-4.644,0.661-9.241-0.837-12.613-4.099l-31.251-30.231
	C269.63-4.209,242.369-4.208,224.97,12.626l-31.252,30.232c-3.372,3.261-7.968,4.756-12.613,4.099l-43.053-6.09
	c-23.964-3.383-46.025,12.633-50.208,36.479l-7.512,42.828c-0.81,4.62-3.652,8.531-7.795,10.729l-38.41,20.38
	c-21.387,11.346-29.811,37.272-19.178,59.024l19.096,39.063c2.06,4.214,2.06,9.049,0,13.263l-19.096,39.065
	c-10.632,21.751-2.208,47.676,19.178,59.024l38.409,20.378c4.144,2.199,6.986,6.11,7.796,10.729l7.512,42.829
	c4.183,23.847,26.242,39.861,50.208,36.479l43.053-6.09c4.647-0.658,9.242,0.838,12.613,4.099l31.251,30.231
	c8.702,8.419,19.864,12.627,31.03,12.626c11.164-0.001,22.332-4.209,31.03-12.625l31.252-30.232
	c3.372-3.261,7.966-4.756,12.613-4.099l43.053,6.09c2.152,0.304,4.285,0.452,6.395,0.452c21.389-0.002,40.006-15.226,43.814-36.93
	l7.512-42.828c0.81-4.62,3.652-8.531,7.795-10.729l38.41-20.38c21.387-11.346,29.811-37.272,19.178-59.024L477.955,262.633z"/>
<path style="fill:#B50400;" d="M497.051,210.305c10.632-21.751,2.208-47.676-19.178-59.024l-38.409-20.378
	c-4.144-2.199-6.986-6.11-7.796-10.729l-7.512-42.829c-4.183-23.847-26.243-39.865-50.208-36.479l-43.053,6.09
	c-4.644,0.661-9.241-0.837-12.613-4.099l-31.251-30.231c-8.702-8.418-19.867-12.627-31.032-12.627v512
	c11.164-0.001,22.332-4.209,31.03-12.625l31.252-30.232c3.372-3.261,7.966-4.756,12.613-4.099l43.053,6.09
	c2.152,0.304,4.285,0.452,6.395,0.452c21.389-0.002,40.006-15.226,43.814-36.93l7.512-42.828c0.81-4.62,3.652-8.531,7.795-10.729
	l38.41-20.38c21.387-11.346,29.811-37.272,19.178-59.024l-19.096-39.063c-2.06-4.214-2.06-9.049,0-13.263L497.051,210.305z"/>
<g>
	<path style="fill:#FDC377;" d="M187.095,182.175c-8.154,0-14.765,6.611-14.765,14.765v55.575l-31.088-62.178
		c-3.062-6.125-9.936-9.341-16.599-7.767c-6.665,1.574-11.373,7.522-11.373,14.37v118.12c0,8.154,6.611,14.765,14.765,14.765
		c8.154,0,14.765-6.611,14.765-14.765v-55.575l31.088,62.178c2.543,5.084,7.708,8.164,13.203,8.164
		c1.125-0.001,2.263-0.13,3.396-0.397c6.665-1.574,11.373-7.522,11.373-14.37V196.94C201.86,188.786,195.25,182.175,187.095,182.175
		z"/>
	<path style="fill:#FDC377;" d="M285.529,211.705c8.154,0,14.765-6.611,14.765-14.765c0-8.154-6.611-14.765-14.765-14.765h-59.06
		c-8.154,0-14.765,6.611-14.765,14.765v118.12c0,8.154,6.611,14.765,14.765,14.765h59.06c8.154,0,14.765-6.611,14.765-14.765
		c0-8.154-6.611-14.765-14.765-14.765h-44.295v-29.53h34.452c8.154,0,14.765-6.611,14.765-14.765
		c0-8.154-6.611-14.765-14.765-14.765h-34.452v-29.53H285.529z"/>
</g>
<g>
	<path style="fill:#FFB255;" d="M290.45,256c0-8.154-6.611-14.765-14.765-14.765h-19.687v29.53h19.687
		C283.84,270.765,290.45,264.155,290.45,256z"/>
	<path style="fill:#FFB255;" d="M285.529,182.175h-29.53v29.53h29.53c8.154,0,14.765-6.611,14.765-14.765
		C300.294,188.786,293.684,182.175,285.529,182.175z"/>
	<path style="fill:#FFB255;" d="M300.294,315.06c0-8.154-6.611-14.765-14.765-14.765h-29.53v29.53h29.53
		C293.684,329.826,300.294,323.216,300.294,315.06z"/>
	<path style="fill:#FFB255;" d="M383.962,182.175c-8.154,0-14.765,6.611-14.765,14.765v55.575l-1.558-3.117
		c-2.501-5.002-7.614-8.162-13.207-8.162s-10.705,3.16-13.207,8.162l-1.558,3.117V196.94c0-8.154-6.611-14.765-14.765-14.765
		c-8.154,0-14.765,6.611-14.765,14.765v118.12c0,6.848,4.708,12.796,11.373,14.37c6.667,1.575,13.536-1.641,16.599-7.767
		l16.323-32.648l16.323,32.648c2.543,5.084,7.708,8.164,13.203,8.164c1.125-0.001,2.263-0.13,3.396-0.397
		c6.665-1.574,11.373-7.522,11.373-14.37V196.94C398.727,188.786,392.117,182.175,383.962,182.175z"/>
</g>
<g>
</g>
<g>
</g>
<g>
</g>
<g>
</g>
<g>
</g>
<g>
</g>
<g>
</g>
<g>
</g>
<g>
</g>
<g>
</g>
<g>
</g>
<g>
</g>
<g>
</g>
<g>
</g>
<g>
</g>
</svg>
