<svg height="512" viewBox="0 0 64 64" width="512" xmlns="http://www.w3.org/2000/svg"><g id="Flat"><g id="Color_copy" data-name="Color copy"><g><g><path d="m50.309 22.464-8.694-18.178a2.205 2.205 0 0 0 -1.615-1.259 2.14 2.14 0 0 0 -2.438 2.565l3.156 14.508a2.546 2.546 0 0 0 -2.265.418 3.53 3.53 0 0 0 -1.453 2.896v5.179a3.663 3.663 0 0 1 -1.076 2.486 3.409 3.409 0 0 0 -.924 2.335v4.586a4 4 0 0 0 1.856 3.377 6.044 6.044 0 0 1 2.616 4.4l.528 4.223h11l-2-8 2.278-12.147a12 12 0 0 0 -.969-7.389z" fill="#f9e109"/><path d="m50.5 48h-2.637a7.633 7.633 0 0 1 -7.687-6.587 7.643 7.643 0 0 0 -.762-2.585l-.607-1.213a7.648 7.648 0 0 1 -.807-3.421v-.787a3.665 3.665 0 0 1 1.076-2.486 3.411 3.411 0 0 0 .924-2.335v-5.416a3.232 3.232 0 0 1 1.526-2.746 2.987 2.987 0 0 0 -2.126-.365 3.122 3.122 0 0 0 -2.4 3.111v5.423a3.663 3.663 0 0 1 -1.076 2.486 3.409 3.409 0 0 0 -.924 2.335v4.586a4 4 0 0 0 1.856 3.377 6.044 6.044 0 0 1 2.616 4.4l.528 4.223h11z" fill="#fcbc04"/><path d="m38 55 18-2-2-5-17 2z" fill="#aae1f9"/><path d="m45.068 51.437a5.548 5.548 0 0 1 -4.751-1.827l-3.317.39 1 5 18-2-1.064-2.66z" fill="#57b7eb"/><path d="m37 61h24l-3-9-22 3z" fill="#c4f236"/><path d="m45.083 58a7.173 7.173 0 0 1 -6.1-3.406l-2.983.406 1 6h24l-1-3z" fill="#a1d51c"/><path d="m43.621 20.544a25.221 25.221 0 0 1 -2.877-6.924l-2.181-10.028a2.164 2.164 0 0 1 -.026-.264 2.128 2.128 0 0 0 -.974 2.264l3.155 14.508a2.991 2.991 0 0 1 2.282 2.9v8a1 1 0 0 0 1 1v-10a2.967 2.967 0 0 0 -.379-1.456z" fill="#fcbc04"/></g><g><path d="m13.691 22.464 8.694-18.178a2.205 2.205 0 0 1 1.615-1.259 2.14 2.14 0 0 1 2.438 2.565l-3.156 14.508a2.546 2.546 0 0 1 2.265.418 3.53 3.53 0 0 1 1.453 2.896v5.179a3.663 3.663 0 0 0 1.076 2.486 3.409 3.409 0 0 1 .924 2.335v4.586a4 4 0 0 1 -1.876 3.39 5.233 5.233 0 0 0 -2.515 3.739l-.609 4.871h-11l2-8-2.278-12.147a12 12 0 0 1 .969-7.389z" fill="#f9e109"/><path d="m28.076 31.079a3.663 3.663 0 0 1 -1.076-2.486v-5.423a3.122 3.122 0 0 0 -2.4-3.111 2.987 2.987 0 0 0 -2.126.365 3.232 3.232 0 0 1 1.526 2.746v5.423a3.663 3.663 0 0 0 1.076 2.486 3.409 3.409 0 0 1 .924 2.335v.78a7.648 7.648 0 0 1 -.807 3.421l-.607 1.213a8.074 8.074 0 0 0 -.758 2.544 7.648 7.648 0 0 1 -7.58 6.628h-2.748l-.5 2h11l.609-4.871a5.233 5.233 0 0 1 2.515-3.739 4 4 0 0 0 1.876-3.39v-4.586a3.409 3.409 0 0 0 -.924-2.335z" fill="#fcbc04"/><path d="m26 55-18-2 2-5 17 2z" fill="#aae1f9"/><path d="m18.932 51.437a5.548 5.548 0 0 0 4.751-1.827l3.317.39-1 5-18-2 1.064-2.66z" fill="#57b7eb"/><path d="m27 61h-24l3-9 22 3z" fill="#c4f236"/><path d="m18.917 58a7.173 7.173 0 0 0 6.1-3.406l2.983.406-1 6h-24l1-3z" fill="#a1d51c"/><path d="m20.379 20.544a25.221 25.221 0 0 0 2.877-6.924l2.181-10.028a2.164 2.164 0 0 0 .026-.264 2.128 2.128 0 0 1 .974 2.264l-3.155 14.508a2.991 2.991 0 0 0 -2.282 2.9v8a1 1 0 0 1 -1 1v-10a2.967 2.967 0 0 1 .379-1.456z" fill="#fcbc04"/></g><g fill="#aae1f9"><path d="m49 11a1 1 0 0 1 -.707-1.707l4-4a1 1 0 1 1 1.414 1.414l-4 4a1 1 0 0 1 -.707.293z"/><path d="m52 16a1 1 0 0 1 -.448-1.895l8-4a1 1 0 1 1 .894 1.79l-8 4a1 1 0 0 1 -.446.105z"/><path d="m54 22a1 1 0 0 1 -.164-1.986l6-1a1 1 0 0 1 .33 1.972l-6 1a.946.946 0 0 1 -.166.014z"/><path d="m15 11a1 1 0 0 1 -.707-.293l-4-4a1 1 0 0 1 1.414-1.414l4 4a1 1 0 0 1 -.707 1.707z"/><path d="m12 16a1 1 0 0 1 -.446-.105l-8-4a1 1 0 1 1 .894-1.79l8 4a1 1 0 0 1 -.448 1.895z"/><path d="m10 22a.946.946 0 0 1 -.166-.014l-6-1a1 1 0 0 1 .33-1.972l6 1a1 1 0 0 1 -.164 1.986z"/></g></g></g></g></svg>