<?xml version="1.0" encoding="iso-8859-1"?>
<!-- Generator: Adobe Illustrator 19.0.0, SVG Export Plug-In . SVG Version: 6.00 Build 0)  -->
<svg version="1.1" id="Capa_1" xmlns="http://www.w3.org/2000/svg" xmlns:xlink="http://www.w3.org/1999/xlink" x="0px" y="0px"
	 viewBox="0 0 512.003 512.003" style="enable-background:new 0 0 512.003 512.003;" xml:space="preserve">
<path style="fill:#DC9E5E;" d="M324.794,256l-6.763-54.386c-2.113-16.989-17.597-29.049-34.586-26.936
	c-1.522,0.189-3.002,0.49-4.438,0.885l-3.431-43.844l-13.912-91.923C259.292,24.116,271.432,10,287.292,10l0,0
	c11.214,0,21.157,7.213,24.638,17.873l54.317,166.34c2.043,7.832,3.717,15.757,5.016,23.746l22.394,137.724l9.105,15.014
	l-88.888,57.925l-36.256-49.61l-21.417-169.749c-2.113-16.989,10.256-32.473,27.245-34.586l0,0
	c16.989-2.113,32.474,9.947,34.586,26.936l7.764,62.436"/>
<polygon style="fill:#F05642;" points="454.307,444.074 367.419,502 313.873,428.622 402.762,370.697 "/>
<path d="M330.24,309.77c-0.66,0-1.31-0.069-1.96-0.2c-0.64-0.13-1.27-0.319-1.87-0.569s-1.18-0.56-1.73-0.92
	c-0.54-0.36-1.05-0.78-1.51-1.24c-0.47-0.47-0.88-0.98-1.25-1.53c-0.36-0.54-0.67-1.12-0.92-1.72s-0.44-1.23-0.57-1.87
	c-0.13-0.65-0.19-1.3-0.19-1.96c0-0.65,0.06-1.31,0.19-1.95s0.32-1.27,0.57-1.87s0.56-1.18,0.92-1.73
	c0.37-0.54,0.78-1.061,1.24-1.52c0.46-0.46,0.98-0.88,1.52-1.239c0.55-0.36,1.13-0.67,1.73-0.92s1.23-0.44,1.87-0.57
	c1.29-0.26,2.62-0.26,3.91,0c0.64,0.13,1.27,0.32,1.87,0.57s1.19,0.56,1.73,0.92c0.55,0.359,1.06,0.779,1.52,1.239
	c0.46,0.46,0.88,0.98,1.24,1.52c0.36,0.55,0.67,1.13,0.92,1.73s0.44,1.23,0.57,1.87c0.13,0.641,0.2,1.3,0.2,1.95
	c0,2.63-1.07,5.21-2.93,7.08c-0.461,0.46-0.97,0.88-1.52,1.24c-0.54,0.359-1.13,0.67-1.73,0.92s-1.23,0.44-1.87,0.569
	C331.54,309.7,330.891,309.77,330.24,309.77z"/>
<path style="fill:#FFD3AE;" d="M187.207,256l6.763-54.386c2.112-16.989,17.597-29.049,34.586-26.936
	c1.522,0.189,3.002,0.49,4.438,0.885l3.431-43.844l13.912-91.923C252.709,24.116,240.569,10,224.71,10l0,0
	c-11.214,0-21.157,7.213-24.638,17.873l-54.317,166.34c-2.043,7.832-3.717,15.757-5.016,23.746l-22.394,137.724l-9.105,15.014
	l88.888,57.925l36.256-49.61l21.36-169.635c2.113-16.989-10.199-32.587-27.188-34.7l0,0c-16.989-2.113-32.474,9.947-34.586,26.936
	l-7.764,62.436"/>
<polygon style="fill:#2C4D77;" points="57.694,444.074 144.582,502 198.128,428.622 109.24,370.697 "/>
<path d="M462.49,438.326l-51.348-73.095l-7.927-13.072l-22.083-135.806c-1.344-8.267-3.097-16.564-5.21-24.665
	c-0.051-0.194-0.107-0.388-0.17-0.58l-54.317-166.34C316.598,9.954,302.878,0,287.292,0c-10.476,0-20.401,4.555-27.232,12.497
	c-1.558,1.812-2.907,3.761-4.059,5.806c-1.152-2.045-2.501-3.995-4.059-5.806C245.11,4.555,235.185,0,224.71,0
	c-15.585,0-29.307,9.954-34.144,24.769l-54.317,166.34c-0.063,0.192-0.12,0.386-0.17,0.58c-2.113,8.101-3.866,16.398-5.21,24.666
	L108.787,352.16l-7.927,13.072l-51.348,73.095c-1.549,2.205-2.142,4.941-1.646,7.59s2.04,4.984,4.282,6.479l86.888,57.926
	c1.702,1.135,3.63,1.681,5.539,1.681c3.091,0,6.133-1.431,8.086-4.106l53.545-73.378l0.001-0.001l36.251-49.602
	c1-1.368,1.636-2.969,1.848-4.651l11.683-92.788l11.707,92.791c0.212,1.681,0.848,3.28,1.848,4.648l36.25,49.602l0.001,0.001
	l53.546,73.378c1.953,2.676,4.995,4.106,8.086,4.106c1.909,0,3.837-0.546,5.539-1.681l86.888-57.926
	c2.242-1.494,3.786-3.83,4.282-6.479C464.632,443.268,464.039,440.531,462.49,438.326z M246.366,132.86l9.635-63.665l9.635,63.663
	l2.826,36.106c-4.807,2.455-9.031,5.808-12.487,9.805c-3.443-3.991-7.65-7.34-12.435-9.793L246.366,132.86z M142.154,488.362
	l-70.387-46.925l40.104-57.09l71.964,46.896L142.154,488.362z M245.821,208.129l-21.036,167.07l-29.139,39.87l-72.837-47.465
	l4.085-6.736c0.666-1.098,1.114-2.314,1.319-3.581l22.394-137.723c1.229-7.553,2.825-15.133,4.747-22.537l54.222-166.05
	C211.721,24.411,217.802,20,224.71,20c4.643,0,9.041,2.019,12.068,5.538c3.027,3.521,4.365,8.172,3.671,12.763l-13.912,91.923
	c-0.036,0.237-0.063,0.477-0.082,0.716l-2.622,33.503c-8.782,0.174-17.239,3.156-24.293,8.651
	c-8.64,6.729-14.142,16.419-15.494,27.286l-6.763,54.386c-0.001,0.009-0.002,0.018-0.003,0.026l-0.998,8.023
	c-0.681,5.482,3.209,10.477,8.69,11.158c5.472,0.675,10.476-3.209,11.157-8.689l7.764-62.437c0.692-5.566,3.51-10.529,7.936-13.976
	c0.036-0.028,0.073-0.056,0.109-0.084c4.406-3.388,9.865-4.873,15.383-4.187c0.013,0,0.017,0.002,0.024,0.003
	c0.993,0.125,1.999,0.327,2.992,0.6c0.106,0.029,0.213,0.058,0.321,0.083C240.497,188.14,247.113,197.745,245.821,208.129z
	 M266.124,208.029c-0.092-0.744-0.133-1.482-0.145-2.216c0-0.044,0.002-0.089,0.002-0.134c-0.095-9.391,6.226-17.737,15.309-20.38
	c0.125-0.029,0.249-0.062,0.373-0.096c0.992-0.273,1.999-0.475,2.99-0.6c0.009-0.001,0.017-0.002,0.026-0.003
	c5.566-0.69,11.068,0.825,15.493,4.271c4.425,3.446,7.243,8.41,7.935,13.977l7.765,62.436c0.682,5.48,5.689,9.365,11.157,8.689
	c5.481-0.682,9.371-5.677,8.69-11.158l-0.995-8.001c-0.002-0.017-0.004-0.032-0.006-0.049l-6.764-54.385
	c-1.351-10.868-6.853-20.559-15.493-27.287c-0.042-0.033-0.085-0.066-0.128-0.1c-3.375-2.607-7.066-4.643-10.96-6.073
	c-4.216-1.549-8.667-2.389-13.206-2.479l-2.622-33.503c-0.019-0.239-0.046-0.479-0.082-0.716l-13.912-91.923
	c-0.694-4.591,0.643-9.242,3.671-12.763c3.028-3.517,7.427-5.536,12.07-5.536c6.907,0,12.988,4.411,15.132,10.978l54.222,166.049
	c1.922,7.404,3.519,14.985,4.747,22.537l22.393,137.724c0.206,1.268,0.654,2.483,1.32,3.581l4.085,6.736l-72.837,47.465
	l-29.139-39.871L266.124,208.029z M369.847,488.363l-41.681-57.119l71.964-46.896l40.104,57.09L369.847,488.363z"/>
<path d="M181.76,309.77c-0.65,0-1.3-0.069-1.95-0.2c-0.64-0.13-1.27-0.319-1.87-0.569c-0.6-0.25-1.19-0.56-1.73-0.92
	c-0.54-0.36-1.06-0.78-1.52-1.24c-0.46-0.47-0.88-0.98-1.24-1.53c-0.36-0.54-0.67-1.12-0.92-1.72c-0.25-0.61-0.44-1.23-0.57-1.87
	c-0.13-0.65-0.19-1.3-0.19-1.96c0-0.65,0.06-1.31,0.19-1.95s0.32-1.27,0.57-1.87s0.56-1.18,0.92-1.73
	c0.36-0.54,0.78-1.061,1.24-1.52c0.46-0.46,0.98-0.88,1.52-1.239c0.54-0.36,1.13-0.67,1.73-0.92c0.6-0.25,1.23-0.44,1.87-0.57
	c1.289-0.26,2.62-0.26,3.91,0c0.64,0.13,1.27,0.32,1.87,0.57s1.18,0.56,1.72,0.92c0.55,0.359,1.059,0.779,1.52,1.239
	c0.47,0.46,0.88,0.98,1.25,1.52c0.36,0.55,0.67,1.13,0.92,1.73s0.44,1.23,0.57,1.87c0.13,0.641,0.19,1.3,0.19,1.95
	c0,0.66-0.06,1.31-0.19,1.96c-0.13,0.64-0.32,1.271-0.57,1.87c-0.25,0.6-0.56,1.18-0.92,1.72c-0.37,0.55-0.78,1.06-1.25,1.53
	c-0.46,0.46-0.97,0.88-1.52,1.24c-0.54,0.359-1.12,0.67-1.72,0.92s-1.23,0.44-1.87,0.569C183.07,309.7,182.42,309.77,181.76,309.77z
	"/>
<path d="M446.516,135.161h-35.509c-5.523,0-10-4.478-10-10s4.477-10,10-10h35.509c5.523,0,10,4.478,10,10
	C456.516,130.684,452.038,135.161,446.516,135.161z"/>
<path d="M433.679,207.504c-2.56,0-5.118-0.977-7.071-2.929l-25.109-25.109c-3.905-3.905-3.905-10.237,0.001-14.143
	c3.905-3.904,10.237-3.903,14.142,0l25.109,25.109c3.905,3.905,3.905,10.237-0.001,14.143
	C438.798,206.527,436.238,207.504,433.679,207.504z"/>
<path d="M408.57,89.151c-2.559,0-5.118-0.977-7.071-2.929c-3.905-3.905-3.906-10.237-0.001-14.143l25.109-25.109
	c3.905-3.904,10.237-3.904,14.142,0c3.905,3.905,3.906,10.237,0.001,14.143l-25.109,25.109
	C413.689,88.175,411.129,89.151,408.57,89.151z"/>
<path d="M100.995,136.385H65.486c-5.523,0-10-4.478-10-10c0-5.523,4.477-10,10-10h35.509c5.523,0,10,4.477,10,10
	C110.995,131.907,106.518,136.385,100.995,136.385z"/>
<path d="M103.431,89.151c-2.56,0-5.118-0.977-7.071-2.929L71.251,61.113c-3.905-3.905-3.905-10.237,0-14.143
	c3.905-3.903,10.236-3.903,14.142,0l25.109,25.109c3.905,3.905,3.905,10.237,0,14.143C108.549,88.175,105.99,89.151,103.431,89.151z
	"/>
<path d="M78.322,207.504c-2.559,0-5.118-0.977-7.071-2.929c-3.905-3.905-3.906-10.237,0-14.143l25.109-25.109
	c3.905-3.904,10.237-3.904,14.142,0c3.905,3.905,3.906,10.237,0,14.143l-25.109,25.109C83.44,206.527,80.881,207.504,78.322,207.504
	z"/>
<g>
</g>
<g>
</g>
<g>
</g>
<g>
</g>
<g>
</g>
<g>
</g>
<g>
</g>
<g>
</g>
<g>
</g>
<g>
</g>
<g>
</g>
<g>
</g>
<g>
</g>
<g>
</g>
<g>
</g>
</svg>
