<svg id="Capa_1" enable-background="new 0 0 512 512" height="512" viewBox="0 0 512 512" width="512" xmlns="http://www.w3.org/2000/svg"><g><g fill="#cbcac8"><path d="m231.867 318.798c-3.742 0-7.031-2.725-7.625-6.538l-30.156-193.59c-.657-4.216 2.229-8.166 6.445-8.823 4.214-.657 8.167 2.228 8.823 6.445l30.156 193.59c.657 4.216-2.229 8.167-6.445 8.823-.403.063-.803.093-1.198.093z"/><path d="m312.338 323.119c-4 0-7.385-3.083-7.696-7.137l-16.266-212.51c-.325-4.255 2.86-7.968 7.115-8.294 4.257-.338 7.968 2.86 8.294 7.114l16.266 212.511c.325 4.255-2.86 7.968-7.115 8.293-.201.015-.401.023-.598.023z"/><path d="m393.613 321.624c-.015 0-.029 0-.044 0-4.267-.024-7.706-3.502-7.683-7.769l1.204-218.467c.024-4.268 3.513-7.665 7.77-7.684 4.267.024 7.706 3.502 7.683 7.769l-1.204 218.467c-.025 4.253-3.48 7.684-7.726 7.684z"/></g><path d="m144.511 244.476c-7.441 0-14.005-5.378-15.259-12.961-1.395-8.437 4.313-16.408 12.75-17.804 1.879-.312 189.536-30.998 337.273-24.488 8.544.376 15.165 7.607 14.788 16.152-.376 8.545-7.64 15.177-16.152 14.788-144.467-6.363-329.009 23.798-330.856 24.103-.854.142-1.705.21-2.544.21z" fill="#dbdbdb"/><path d="m494.065 205.37c-.381 8.55-7.644 15.175-16.153 14.793-144.462-6.366-329.009 23.797-330.853 24.096-.855.144-1.71.216-2.545.216-7.448 0-14.011-5.378-15.267-12.96-.484-2.967-.103-5.872.979-8.458 2.38 5.728 8.015 9.539 14.289 9.539.835 0 1.689-.072 2.545-.216 1.844-.299 186.391-30.463 330.853-24.096 6.655.299 12.548-3.688 14.979-9.529.854 2.03 1.276 4.276 1.173 6.615z" fill="#cbcac8"/><path d="m444.019 460.163c-.32.217-.64.413-.96.609-2.426 1.404-5.09 2.075-7.732 2.075-4.955 0-9.828-2.374-12.822-6.782-31.507-46.352-71.077-74.484-98.713-89.917-2.158-1.208-4.284-2.364-6.37-3.448-8.496-4.491-16.301-8.063-23-10.85-7.33-3.066-13.348-5.182-17.539-6.545-6.287 4.749-11.996 9.828-17.178 15.093-38.775 39.342-48.097 89.07-48.2 89.648-1.507 8.403-9.539 14.03-17.942 12.543s-14.029-9.477-12.564-17.89c.423-2.447 8.341-45.764 40.303-87.347 7.619-9.931 16.621-19.769 27.223-28.916 5.193-4.501 10.767-8.827 16.755-12.915 3.634-2.488 8.155-3.303 12.429-2.261 1.776.444 20.802 5.286 47.261 18.407 14.732 7.298 31.776 17.178 49.439 30.279 24.941 18.499 51.091 43.441 73.709 76.713 4.81 7.071 2.973 16.703-4.099 21.504z" fill="#dbdbdb"/><path d="m443.059 460.772c-2.426 1.404-5.09 2.075-7.732 2.075-4.955 0-9.828-2.374-12.822-6.782-31.507-46.352-71.077-74.484-98.713-89.917-2.158-1.208-4.284-2.364-6.37-3.448-8.496-4.491-16.301-8.063-23-10.85h27.656c.001-.001 75.816 23.692 120.981 108.922z" fill="#cbcac8"/><path d="m277.709 313.26c.547.134 2.695.681 6.173 1.745-.279.155-.547.33-.815.516-5.987 4.088-11.562 8.414-16.755 12.915-10.602 9.147-19.604 18.985-27.223 28.916-31.961 41.583-39.879 84.9-40.303 87.347-1.063 6.101 1.6 11.975 6.349 15.309-3.252 2.281-7.361 3.324-11.573 2.581-8.403-1.487-14.029-9.477-12.564-17.89.423-2.447 8.341-45.764 40.303-87.347 7.619-9.931 16.621-19.769 27.223-28.916 5.193-4.501 10.768-8.827 16.755-12.915 3.634-2.488 8.156-3.303 12.43-2.261z" fill="#cbcac8"/><path d="m324.969 331.667c-27.832-.237-53.981-1.569-76.445-3.231-10.602 9.147-19.604 18.985-27.223 28.916 11.418 1.084 24.343 2.147 38.403 3.046 5.182-5.265 10.891-10.344 17.178-15.093 8.021 2.602 22.732 8.001 40.54 17.395 5.162.072 10.385.113 15.661.113 13.482 0 27.326-.258 41.325-.867-17.663-13.101-34.707-22.981-49.439-30.279z" fill="#cbcac8"/><path d="m107.431 148.107c-7.591 0-14.217-5.586-15.312-13.316-1.813-12.701-10.151-49.298-26.731-65.878-8.809-8.809-22.397-11.031-32.245-11.343-8.548-.271-15.258-7.42-14.987-15.969.272-8.548 7.431-15.231 15.969-14.987 22.136.703 40.52 7.756 53.162 20.399 11.762 11.761 21.321 29.51 28.413 52.753 5.076 16.635 7.005 30.129 7.085 30.696 1.191 8.469-4.709 16.3-13.177 17.491-.732.104-1.458.154-2.177.154z" fill="#dbdbdb"/><path d="m123.229 135.346c-.485 7.154-5.926 13.224-13.297 14.267-.733.103-1.456.145-2.178.145-7.588 0-14.215-5.585-15.31-13.307-1.817-12.708-10.148-49.305-26.727-65.884-8.816-8.806-22.402-11.026-32.25-11.346-8.548-.268-15.258-7.412-14.979-15.96.186-5.843 3.582-10.819 8.445-13.296-.01.186-.021.372-.031.558-.268 8.548 6.442 15.702 14.99 15.97 9.849.31 23.434 2.529 32.25 11.345 14.848 14.848 24.887 44.918 27.749 60.331.334 1.797-1.212 4.217-1.022 5.543 1.094 7.732 7.722 13.317 15.31 13.317.723 0 1.445-.052 2.178-.155 1.744-.248 3.386-.775 4.872-1.528z" fill="#cbcac8"/><circle cx="33.634" cy="42.093" fill="#db5c6e" r="33.634"/><path d="m42.171 74.632c-2.725.712-5.585 1.094-8.537 1.094-18.572.001-33.634-15.061-33.634-33.633 0-18.582 15.062-33.634 33.634-33.634 2.952 0 5.812.382 8.537 1.094-14.442 3.778-25.096 16.91-25.096 32.539 0 15.62 10.654 28.762 25.096 32.54z" fill="#d64553"/><path d="m497.165 68.023c-2.452-.093-60.657-2.421-138.683 2.483-105.243 6.614-191.562 22.654-256.587 47.667-7.221 2.771-11.291 10.446-9.519 17.977 1.092 4.656 27.166 114.968 65.643 186.587 2.297 4.285 6.469 7.242 11.27 7.984 1.267.196 7.809 1.185 18.481 2.514 27.547 3.441 82.59 9.128 145.317 9.128 45.05 0 94.076-2.926 139.713-11.744 6.253-1.205 11.136-6.13 12.29-12.414 1.104-5.998 26.91-147.854 26.91-234.698 0-8.304-6.542-15.124-14.835-15.484zm-315.462 233.171c-27.228-53.683-48.068-128.69-55.857-158.813 60.018-20.933 140.579-35.036 234.222-40.95 53.569-3.369 98.434-3.235 120.717-2.843-2.235 70.784-18.698 171.103-24.302 203.512-110.476 18.843-241.999 3.482-274.78-.906z" fill="#dbdbdb"/><path d="m187.771 333.236c-10.675-1.332-17.219-2.323-18.479-2.519-4.8-.744-8.971-3.696-11.273-7.98-38.475-71.624-64.552-181.93-65.647-186.585-1.765-7.536 2.302-15.206 9.518-17.983 31.993 132.036 68.362 192.087 85.881 215.067z" fill="#cbcac8"/><circle cx="193.563" cy="462.589" fill="#407093" r="40.953"/><circle cx="193.563" cy="462.589" fill="#db5c6e" r="16.702"/><path d="m193.563 487.017c-13.47 0-24.428-10.958-24.428-24.428s10.958-24.428 24.428-24.428c13.469 0 24.428 10.958 24.428 24.428s-10.959 24.428-24.428 24.428zm0-33.404c-4.949 0-8.975 4.026-8.975 8.975s4.026 8.975 8.975 8.975 8.975-4.026 8.975-8.975-4.026-8.975-8.975-8.975z" fill="#365e7d"/><circle cx="444.019" cy="462.589" fill="#407093" r="40.953"/><circle cx="444.019" cy="462.589" fill="#db5c6e" r="16.702"/><path d="m444.019 487.017c-13.47 0-24.428-10.958-24.428-24.428s10.958-24.428 24.428-24.428 24.428 10.958 24.428 24.428-10.958 24.428-24.428 24.428zm0-33.404c-4.949 0-8.975 4.026-8.975 8.975s4.026 8.975 8.975 8.975 8.975-4.026 8.975-8.975-4.026-8.975-8.975-8.975z" fill="#365e7d"/><path d="m493.474 111.696c-5.726 119.725-14.371 164.943-19.145 181.429-1.543 5.329-6.452 8.975-11.999 8.975h-5.847c5.604-32.409 22.067-132.729 24.302-203.512 7.218-.111 13.034 5.899 12.689 13.108z" fill="#cbcac8"/></g></svg>